<svg width="4" height="8" viewBox="0 0 4 8" fill="none" xmlns="http://www.w3.org/2000/svg">
<path d="M2.95793 1.29379C2.80642 1.12379 2.61514 0.994442 2.40139 0.917436C2.17109 0.842507 1.93004 0.806418 1.68801 0.810634H0.22583V7.69939H1.20736V5.00899H1.71331C2.01956 5.02291 2.32428 4.95815 2.59871 4.82081C2.82188 4.6969 3.00795 4.51513 3.13754 4.29443C3.25109 4.1112 3.3276 3.90727 3.36269 3.6943C3.40133 3.43509 3.41909 3.17316 3.41581 2.91108C3.42535 2.58028 3.39305 2.2496 3.31968 1.92697C3.25421 1.6886 3.12976 1.47077 2.95793 1.29379ZM2.45199 3.39424C2.44773 3.51896 2.41666 3.64128 2.36092 3.75279C2.30483 3.85871 2.21606 3.94348 2.10795 3.99436C1.96254 4.05938 1.80394 4.089 1.64501 4.08082H1.19724V1.7388H1.70319C1.85553 1.73133 2.00741 1.76099 2.14589 1.82526C2.24739 1.88349 2.32796 1.9725 2.3761 2.07955C2.42974 2.20057 2.45897 2.33108 2.46211 2.46353C2.46211 2.60847 2.46211 2.76105 2.46211 2.92125C2.46211 3.08146 2.47223 3.24675 2.46211 3.39424H2.45199Z" fill="#AFB1B8"/>
</svg>
