<svg width="22" height="33" viewBox="0 0 22 33" fill="none" xmlns="http://www.w3.org/2000/svg">
<path d="M6.11078 3.93259C5.44547 3.93259 4.78774 3.9097 4.15278 3.86138C3.39386 3.80544 2.6147 3.7139 1.87603 3.58929C1.42573 3.51301 0.983032 3.42146 0.552979 3.32229V31.3935C2.37369 31.8443 4.2433 32.0647 6.11837 32.0496C8.59306 32.0395 11.0571 31.7227 13.4546 31.1061C16.1853 30.4243 18.8067 29.3585 21.2411 27.9402V0.0495605C18.8986 1.32178 16.4068 2.29396 13.8239 2.94339C11.3031 3.59083 8.71252 3.92307 6.11078 3.93259ZM17.3352 4.41828L18.3471 4.07753V26.2263L17.9145 26.4348C16.2552 27.2243 14.5223 27.8469 12.7412 28.2937C10.5781 28.8533 8.35442 29.1412 6.1209 29.1506C5.45305 29.1506 4.79027 29.1227 4.14772 29.0667L3.45457 29.0057V26.3178V6.22883L4.26156 6.28224C4.84845 6.32038 5.45559 6.33818 6.11584 6.33818C8.95141 6.3281 11.7749 5.96596 14.5221 5.25998C15.4657 5.01078 16.4042 4.73106 17.3352 4.41828Z" fill="#AFB1B8"/>
</svg>
