<svg width="2" height="2" viewBox="0 0 2 2" fill="none" xmlns="http://www.w3.org/2000/svg">
<path d="M1.02325 1.26761C1.30152 1.22438 1.44319 1.07689 1.44319 0.822597C1.45126 0.754567 1.44095 0.685607 1.41336 0.622963C1.38576 0.560318 1.34188 0.506304 1.28634 0.466592C1.14148 0.393849 0.979899 0.361362 0.818345 0.372502H0.140381V1.97199H0.461653V1.30321H0.524896C0.593378 1.29897 0.661881 1.31118 0.724746 1.33881C0.771711 1.36776 0.810818 1.40795 0.838583 1.45578L1.18769 1.96436H1.5722L1.37741 1.65158C1.29132 1.49718 1.16992 1.36556 1.02325 1.26761ZM0.699447 1.04637H0.461653V0.644595H0.714625C0.824839 0.635657 0.935728 0.648617 1.04096 0.682737C1.06435 0.703394 1.08282 0.729079 1.09499 0.757888C1.10716 0.786696 1.11272 0.817889 1.11126 0.849153C1.1098 0.880417 1.10137 0.910952 1.08657 0.93849C1.07177 0.966028 1.05099 0.989862 1.02578 1.00823C0.920182 1.04061 0.809623 1.05354 0.699447 1.04637Z" fill="#AFB1B8"/>
</svg>
