<svg width="5" height="8" viewBox="0 0 5 8" fill="none" xmlns="http://www.w3.org/2000/svg">
<path d="M3.62892 1.16923C3.31271 0.90223 2.91362 0.754713 2.50066 0.752197C2.29868 0.753051 2.09838 0.789189 1.9087 0.858999C1.71613 0.928026 1.53841 1.03332 1.38505 1.16923C1.22076 1.31691 1.08968 1.49809 1.00053 1.7007C0.900633 1.93245 0.851457 2.18308 0.856339 2.4356V6.07451C0.8495 6.33049 0.898727 6.58485 1.00053 6.81958C1.09028 7.01527 1.22152 7.18885 1.38505 7.32817C1.53665 7.46893 1.71468 7.57786 1.9087 7.64857C2.09838 7.71838 2.29868 7.75452 2.50066 7.75537C2.70269 7.75499 2.90307 7.71884 3.09262 7.64857C3.28995 7.57687 3.47195 7.46814 3.62892 7.32817C3.7871 7.18625 3.91454 7.01313 4.00332 6.81958C4.10512 6.58485 4.15435 6.33049 4.14751 6.07451V2.4356C4.15239 2.18308 4.10322 1.93245 4.00332 1.7007C3.91505 1.50021 3.78775 1.3195 3.62892 1.16923ZM3.16598 6.07451C3.17434 6.1715 3.16095 6.26913 3.1268 6.36023C3.09265 6.45133 3.03861 6.53357 2.96866 6.60089C2.83768 6.71074 2.67251 6.77091 2.50193 6.77091C2.33135 6.77091 2.16617 6.71074 2.03519 6.60089C1.96524 6.53357 1.9112 6.45133 1.87705 6.36023C1.8429 6.26913 1.82952 6.1715 1.83787 6.07451V2.4356C1.82952 2.33862 1.8429 2.24098 1.87705 2.14988C1.9112 2.05879 1.96524 1.97655 2.03519 1.90922C2.16617 1.79938 2.33135 1.73921 2.50193 1.73921C2.67251 1.73921 2.83768 1.79938 2.96866 1.90922C3.03861 1.97655 3.09265 2.05879 3.1268 2.14988C3.16095 2.24098 3.17434 2.33862 3.16598 2.4356V6.07451Z" fill="#AFB1B8"/>
</svg>
