<svg width="2" height="2" viewBox="0 0 2 2" fill="none" xmlns="http://www.w3.org/2000/svg">
<path d="M0.907931 1.38213H1.27727V1.58811C1.16941 1.67456 1.03576 1.72203 0.897812 1.72288C0.833296 1.72649 0.768857 1.71453 0.709883 1.68799C0.650909 1.66144 0.599114 1.62109 0.558829 1.57031C0.474021 1.44852 0.432169 1.30172 0.439932 1.15327C0.439932 0.797264 0.594245 0.619259 0.900342 0.619259C0.980914 0.611232 1.06168 0.63246 1.12804 0.679103C1.19439 0.725745 1.24194 0.794721 1.26209 0.873549L1.57831 0.812522C1.51001 0.499745 1.28486 0.342083 0.900342 0.342083C0.694678 0.336594 0.494696 0.410272 0.341273 0.548058C0.260688 0.627631 0.198341 0.723916 0.158582 0.8302C0.118823 0.936485 0.102608 1.05021 0.111068 1.16344C0.101748 1.38228 0.174925 1.5966 0.315975 1.76357C0.394343 1.84435 0.489201 1.9071 0.594013 1.94749C0.698826 1.98787 0.811103 2.00494 0.923109 1.99751C1.17338 2.00448 1.41652 1.91328 1.60108 1.74322V1.11258H0.907931V1.38213Z" fill="#AFB1B8"/>
</svg>
