<svg width="4" height="8" viewBox="0 0 4 8" fill="none" xmlns="http://www.w3.org/2000/svg">
<path d="M2.73726 1.21226C2.59178 1.06138 2.41641 0.942903 2.22248 0.864492C2.02856 0.78608 1.82042 0.749488 1.61153 0.757084C1.38892 0.754126 1.16793 0.795613 0.961389 0.879143C0.772023 0.954566 0.599889 1.0679 0.455444 1.21226C0.312573 1.35706 0.201414 1.5303 0.12911 1.72085C0.0498013 1.92054 0.0102645 2.13394 0.0127426 2.34895V6.14297C0.0036949 6.41032 0.0547102 6.67629 0.161996 6.9211C0.251555 7.11553 0.380847 7.28882 0.541455 7.42968C0.693075 7.55734 0.8711 7.64943 1.06258 7.69923C1.24706 7.75109 1.43768 7.77761 1.62924 7.77806C1.84053 7.78018 2.04965 7.73501 2.24143 7.64583C2.43107 7.56285 2.60289 7.44368 2.74737 7.29491C2.88826 7.14751 3.00064 6.97505 3.07877 6.78632C3.15985 6.59501 3.20117 6.38906 3.2002 6.18111V5.75644H2.20854V6.09465C2.21149 6.21014 2.19172 6.32507 2.15036 6.43286C2.11807 6.51362 2.06889 6.58646 2.00617 6.64646C1.94474 6.6961 1.87428 6.73324 1.79873 6.75581C1.73176 6.77811 1.66182 6.79011 1.59129 6.79141C1.50275 6.80172 1.41308 6.78834 1.33134 6.75261C1.24961 6.71689 1.17871 6.66009 1.12582 6.58798C1.03234 6.4355 0.986517 6.25833 0.994276 6.0794V2.54221C0.988124 2.34606 1.02981 2.15137 1.1157 1.97514C1.16718 1.89506 1.24002 1.83114 1.3259 1.79067C1.41178 1.75021 1.50725 1.73482 1.60141 1.74628C1.68689 1.74323 1.77182 1.76107 1.84893 1.79828C1.92603 1.83548 1.99301 1.89094 2.04411 1.95988C2.15508 2.10556 2.2131 2.28504 2.20854 2.46846V2.7965H3.19008V2.40998C3.19207 2.18298 3.15085 1.9577 3.06865 1.74628C2.99539 1.54751 2.88264 1.36581 2.73726 1.21226Z" fill="#AFB1B8"/>
</svg>
