<svg width="82" height="41" viewBox="0 0 82 41" fill="none" xmlns="http://www.w3.org/2000/svg">
<path d="M12.7669 12.4309H12.7641C10.4353 12.4309 8.54736 14.1624 8.54736 16.2984V16.301C8.54736 18.4369 10.4353 20.1685 12.7641 20.1685H12.7669C15.0957 20.1685 16.9836 18.4369 16.9836 16.301V16.2984C16.9836 14.1624 15.0957 12.4309 12.7669 12.4309Z" fill="#2196F3"/>
<path d="M43.8909 11.1946C43.8843 8.22793 42.5967 5.38444 40.3097 3.28643C38.0228 1.18841 34.9228 0.00673632 31.6882 0V0C28.4527 0.00538941 25.3513 1.18647 23.0632 3.28463C20.775 5.38279 19.4866 8.22705 19.48 11.1946V27.5544C19.48 27.5544 43.8882 25.0611 43.8909 11.1972V11.1946Z" fill="#2196F3"/>
<path d="M0 32.924C0.00586666 34.9882 0.902337 36.9664 2.49352 38.4263C4.0847 39.8862 6.24122 40.709 8.49185 40.7151C10.742 40.709 12.8981 39.8865 14.4892 38.4272C16.0803 36.9679 16.9771 34.9903 16.9837 32.9265V21.5432C16.9837 21.5432 0 23.2794 0 32.924ZM8.49185 34.9635C8.05204 34.9635 7.62211 34.8439 7.25642 34.6198C6.89073 34.3957 6.60571 34.0772 6.4374 33.7045C6.26909 33.3318 6.22505 32.9217 6.31085 32.5261C6.39666 32.1304 6.60845 31.767 6.91944 31.4818C7.23043 31.1965 7.62666 31.0023 8.05802 30.9236C8.48938 30.8449 8.9365 30.8853 9.34284 31.0397C9.74917 31.194 10.0965 31.4554 10.3408 31.7908C10.5852 32.1262 10.7156 32.5206 10.7156 32.924C10.7167 33.1924 10.66 33.4585 10.5487 33.7068C10.4374 33.9552 10.2738 34.1809 10.0672 34.3711C9.86062 34.5613 9.6151 34.7122 9.34477 34.8152C9.07443 34.9182 8.78458 34.9712 8.49185 34.9712V34.9635Z" fill="#2196F3"/>
<path d="M25.7402 33.8306H24.0527V35.5737H23.1738V31.3081H25.9512V32.02H24.0527V33.1216H25.7402V33.8306ZM29.9648 33.5376C29.9648 33.9575 29.8906 34.3257 29.7422 34.6421C29.5938 34.9585 29.3809 35.2026 29.1035 35.3745C28.8281 35.5464 28.5117 35.6323 28.1543 35.6323C27.8008 35.6323 27.4854 35.5474 27.208 35.3774C26.9307 35.2075 26.7158 34.9653 26.5635 34.6509C26.4111 34.3345 26.334 33.9712 26.332 33.561V33.3501C26.332 32.9302 26.4072 32.561 26.5576 32.2427C26.71 31.9224 26.9238 31.6772 27.1992 31.5073C27.4766 31.3354 27.793 31.2495 28.1484 31.2495C28.5039 31.2495 28.8193 31.3354 29.0947 31.5073C29.3721 31.6772 29.5859 31.9224 29.7363 32.2427C29.8887 32.561 29.9648 32.9292 29.9648 33.3472V33.5376ZM29.0742 33.3442C29.0742 32.897 28.9941 32.5571 28.834 32.3247C28.6738 32.0923 28.4453 31.9761 28.1484 31.9761C27.8535 31.9761 27.626 32.0913 27.4658 32.3218C27.3057 32.5503 27.2246 32.8862 27.2227 33.3296V33.5376C27.2227 33.9731 27.3027 34.311 27.4629 34.5513C27.623 34.7915 27.8535 34.9116 28.1543 34.9116C28.4492 34.9116 28.6758 34.7964 28.834 34.5659C28.9922 34.3335 29.0723 33.9956 29.0742 33.5522V33.3442ZM32.8154 34.4546C32.8154 34.2886 32.7568 34.1616 32.6396 34.0737C32.5225 33.9839 32.3115 33.8901 32.0068 33.7925C31.7021 33.6929 31.4609 33.5952 31.2832 33.4995C30.7988 33.2378 30.5566 32.8853 30.5566 32.4419C30.5566 32.2114 30.6211 32.0063 30.75 31.8267C30.8809 31.645 31.0674 31.5034 31.3096 31.4019C31.5537 31.3003 31.8271 31.2495 32.1299 31.2495C32.4346 31.2495 32.7061 31.3052 32.9443 31.4165C33.1826 31.5259 33.3672 31.6812 33.498 31.8823C33.6309 32.0835 33.6973 32.312 33.6973 32.5679H32.8184C32.8184 32.3726 32.7568 32.2212 32.6338 32.1138C32.5107 32.0044 32.3379 31.9497 32.1152 31.9497C31.9004 31.9497 31.7334 31.9956 31.6143 32.0874C31.4951 32.1772 31.4355 32.2964 31.4355 32.4448C31.4355 32.5835 31.5049 32.6997 31.6436 32.7935C31.7842 32.8872 31.9902 32.9751 32.2617 33.0571C32.7617 33.2075 33.126 33.394 33.3545 33.6167C33.583 33.8394 33.6973 34.1167 33.6973 34.4487C33.6973 34.8179 33.5576 35.1079 33.2783 35.3188C32.999 35.5278 32.623 35.6323 32.1504 35.6323C31.8223 35.6323 31.5234 35.5728 31.2539 35.4536C30.9844 35.3325 30.7783 35.1675 30.6357 34.9585C30.4951 34.7495 30.4248 34.5073 30.4248 34.2319H31.3066C31.3066 34.7026 31.5879 34.938 32.1504 34.938C32.3594 34.938 32.5225 34.896 32.6396 34.812C32.7568 34.7261 32.8154 34.6069 32.8154 34.4546ZM37.5059 32.02H36.1992V35.5737H35.3203V32.02H34.0312V31.3081H37.5059V32.02ZM40.5762 33.7251H38.8887V34.8677H40.8691V35.5737H38.0098V31.3081H40.8633V32.02H38.8887V33.0366H40.5762V33.7251ZM42.9639 34.0122H42.2637V35.5737H41.3848V31.3081H42.9697C43.4736 31.3081 43.8623 31.4204 44.1357 31.645C44.4092 31.8696 44.5459 32.187 44.5459 32.5972C44.5459 32.8882 44.4824 33.1313 44.3555 33.3267C44.2305 33.52 44.04 33.6743 43.7842 33.7896L44.707 35.5327V35.5737H43.7637L42.9639 34.0122ZM42.2637 33.3003H42.9727C43.1934 33.3003 43.3643 33.2446 43.4854 33.1333C43.6064 33.02 43.667 32.8647 43.667 32.6675C43.667 32.4663 43.6094 32.3081 43.4941 32.1929C43.3809 32.0776 43.2061 32.02 42.9697 32.02H42.2637V33.3003ZM47.5898 34.0708V35.5737H46.7109V31.3081H48.375C48.6953 31.3081 48.9766 31.3667 49.2188 31.4839C49.4629 31.6011 49.6504 31.7681 49.7812 31.9849C49.9121 32.1997 49.9775 32.4448 49.9775 32.7202C49.9775 33.1382 49.834 33.4683 49.5469 33.7104C49.2617 33.9507 48.8662 34.0708 48.3604 34.0708H47.5898ZM47.5898 33.3589H48.375C48.6074 33.3589 48.7842 33.3042 48.9053 33.1948C49.0283 33.0854 49.0898 32.9292 49.0898 32.7261C49.0898 32.5171 49.0283 32.3481 48.9053 32.2192C48.7822 32.0903 48.6123 32.0239 48.3955 32.02H47.5898V33.3589ZM53.1504 33.7251H51.4629V34.8677H53.4434V35.5737H50.584V31.3081H53.4375V32.02H51.4629V33.0366H53.1504V33.7251ZM57.2285 32.02H55.9219V35.5737H55.043V32.02H53.7539V31.3081H57.2285V32.02ZM60.2988 33.7251H58.6113V34.8677H60.5918V35.5737H57.7324V31.3081H60.5859V32.02H58.6113V33.0366H60.2988V33.7251ZM62.6865 34.0122H61.9863V35.5737H61.1074V31.3081H62.6924C63.1963 31.3081 63.585 31.4204 63.8584 31.645C64.1318 31.8696 64.2686 32.187 64.2686 32.5972C64.2686 32.8882 64.2051 33.1313 64.0781 33.3267C63.9531 33.52 63.7627 33.6743 63.5068 33.7896L64.4297 35.5327V35.5737H63.4863L62.6865 34.0122ZM61.9863 33.3003H62.6953C62.916 33.3003 63.0869 33.2446 63.208 33.1333C63.3291 33.02 63.3896 32.8647 63.3896 32.6675C63.3896 32.4663 63.332 32.3081 63.2168 32.1929C63.1035 32.0776 62.9287 32.02 62.6924 32.02H61.9863V33.3003ZM67.1514 34.4546C67.1514 34.2886 67.0928 34.1616 66.9756 34.0737C66.8584 33.9839 66.6475 33.8901 66.3428 33.7925C66.0381 33.6929 65.7969 33.5952 65.6191 33.4995C65.1348 33.2378 64.8926 32.8853 64.8926 32.4419C64.8926 32.2114 64.957 32.0063 65.0859 31.8267C65.2168 31.645 65.4033 31.5034 65.6455 31.4019C65.8896 31.3003 66.1631 31.2495 66.4658 31.2495C66.7705 31.2495 67.042 31.3052 67.2803 31.4165C67.5186 31.5259 67.7031 31.6812 67.834 31.8823C67.9668 32.0835 68.0332 32.312 68.0332 32.5679H67.1543C67.1543 32.3726 67.0928 32.2212 66.9697 32.1138C66.8467 32.0044 66.6738 31.9497 66.4512 31.9497C66.2363 31.9497 66.0693 31.9956 65.9502 32.0874C65.8311 32.1772 65.7715 32.2964 65.7715 32.4448C65.7715 32.5835 65.8408 32.6997 65.9795 32.7935C66.1201 32.8872 66.3262 32.9751 66.5977 33.0571C67.0977 33.2075 67.4619 33.394 67.6904 33.6167C67.9189 33.8394 68.0332 34.1167 68.0332 34.4487C68.0332 34.8179 67.8936 35.1079 67.6143 35.3188C67.335 35.5278 66.959 35.6323 66.4863 35.6323C66.1582 35.6323 65.8594 35.5728 65.5898 35.4536C65.3203 35.3325 65.1143 35.1675 64.9717 34.9585C64.8311 34.7495 64.7607 34.5073 64.7607 34.2319H65.6426C65.6426 34.7026 65.9238 34.938 66.4863 34.938C66.6953 34.938 66.8584 34.896 66.9756 34.812C67.0928 34.7261 67.1514 34.6069 67.1514 34.4546Z" fill="#2196F3"/>
</svg>
