<svg width="41" height="42" viewBox="0 0 41 42" fill="none" xmlns="http://www.w3.org/2000/svg">
<path d="M6.34566 40.4926C6.36067 40.493 6.37546 40.4961 6.38915 40.5018C6.40284 40.5076 6.41516 40.5157 6.42539 40.5259L6.63116 40.7348C6.47144 40.9039 6.27403 41.0392 6.05243 41.1313C5.79293 41.2319 5.51326 41.2805 5.23192 41.2738C4.96755 41.2788 4.70488 41.2336 4.46028 41.1408C4.23964 41.0557 4.04139 40.9277 3.87898 40.7657C3.71321 40.5976 3.58553 40.4006 3.50344 40.1863C3.41355 39.9474 3.36916 39.696 3.37226 39.4431C3.36861 39.1886 3.4166 38.9358 3.51373 38.6976C3.60359 38.4819 3.73912 38.2849 3.91241 38.1182C4.08805 37.9547 4.29815 37.8262 4.52973 37.7407C4.78306 37.65 5.05283 37.6049 5.32452 37.6077C5.57689 37.602 5.82792 37.6432 6.06272 37.7288C6.26644 37.8104 6.45349 37.9236 6.61573 38.0636L6.4434 38.2868C6.43149 38.3025 6.41669 38.3162 6.39967 38.3271C6.37934 38.34 6.35477 38.3459 6.33022 38.3438C6.30353 38.3421 6.27779 38.3339 6.25563 38.32L6.16303 38.2607L6.03443 38.1847C5.97891 38.1565 5.92133 38.1319 5.86209 38.1111C5.78581 38.0859 5.70756 38.066 5.62803 38.0517C5.52709 38.0345 5.42457 38.0266 5.32195 38.028C5.12631 38.0257 4.93215 38.0596 4.75093 38.1277C4.58192 38.1908 4.42937 38.2863 4.30338 38.4079C4.17512 38.5372 4.07629 38.689 4.01273 38.8543C3.94029 39.0433 3.90458 39.2426 3.90727 39.4431C3.90418 39.6467 3.93988 39.8493 4.01273 40.0415C4.07549 40.2053 4.1725 40.3562 4.29823 40.4855C4.41604 40.6061 4.56206 40.7003 4.72521 40.7609C4.89311 40.8252 5.07333 40.8575 5.25507 40.8559C5.36005 40.8574 5.465 40.851 5.56887 40.8369C5.73848 40.8178 5.90118 40.7634 6.04472 40.6778C6.11671 40.634 6.18467 40.5848 6.24792 40.5306C6.27436 40.5073 6.30914 40.4938 6.34566 40.4926Z" fill="#AFB1B8"/>
<path d="M12.2871 39.4428C12.2903 39.6947 12.2432 39.945 12.1482 40.1812C12.0644 40.3954 11.9323 40.5908 11.7608 40.7545C11.5892 40.9182 11.382 41.0465 11.1528 41.1309C10.6492 41.3082 10.0925 41.3082 9.58896 41.1309C9.36125 41.0452 9.15539 40.9166 8.98452 40.7534C8.81305 40.5867 8.68004 40.3896 8.59356 40.1741C8.40827 39.6958 8.40827 39.1731 8.59356 38.6949C8.6813 38.4792 8.81414 38.2815 8.98452 38.1131C9.15685 37.955 9.3626 37.8314 9.58896 37.7499C10.0919 37.5694 10.6499 37.5694 11.1528 37.7499C11.3813 37.8355 11.588 37.9641 11.7598 38.1274C11.9292 38.2924 12.0612 38.487 12.1482 38.6996C12.2435 38.9374 12.2906 39.1893 12.2871 39.4428ZM11.747 39.4428C11.751 39.2412 11.718 39.0405 11.6492 38.8492C11.5916 38.6853 11.4979 38.5341 11.374 38.4052C11.2534 38.2832 11.1049 38.1875 10.9393 38.125C10.5734 37.9952 10.1684 37.9952 9.80245 38.125C9.63684 38.1875 9.48836 38.2832 9.36776 38.4052C9.24215 38.5334 9.14747 38.6847 9.08997 38.8492C8.9591 39.2357 8.9591 39.6499 9.08997 40.0364C9.14803 40.2006 9.24265 40.3518 9.36776 40.4804C9.48851 40.6016 9.637 40.6965 9.80245 40.7582C10.169 40.8847 10.5728 40.8847 10.9393 40.7582C11.1048 40.6965 11.2533 40.6016 11.374 40.4804C11.4974 40.3511 11.591 40.2 11.6492 40.0364C11.7183 39.8451 11.7513 39.6443 11.747 39.4428Z" fill="#AFB1B8"/>
<path d="M16.3408 40.0651L16.3948 40.1981C16.4154 40.1506 16.4334 40.1079 16.4539 40.0651C16.4736 40.0205 16.4959 39.9769 16.5208 39.9345L17.8352 37.7289C17.8609 37.6909 17.884 37.6672 17.9098 37.6601C17.9447 37.6502 17.9813 37.6462 18.0178 37.6482H18.4062V41.2356H17.9458V38.5979C17.9458 38.5646 17.9458 38.5266 17.9458 38.4863C17.9433 38.4452 17.9433 38.4039 17.9458 38.3628L16.6237 40.5993C16.6069 40.6328 16.58 40.6611 16.5463 40.6809C16.5125 40.7007 16.4733 40.7111 16.4334 40.7109H16.3588C16.3187 40.7114 16.2794 40.7011 16.2456 40.6813C16.2118 40.6615 16.185 40.633 16.1684 40.5993L14.8078 38.3486C14.8078 38.3913 14.8078 38.4341 14.8078 38.4768C14.8078 38.5195 14.8078 38.5575 14.8078 38.5907V41.2285H14.3628V37.6482H14.7512C14.7877 37.6462 14.8243 37.6502 14.8592 37.6601C14.8911 37.6747 14.9165 37.699 14.9312 37.7289L16.2739 39.9369C16.3003 39.9777 16.3227 40.0206 16.3408 40.0651Z" fill="#AFB1B8"/>
<path d="M21.2869 39.887V41.2307H20.7725V37.6483H21.9196C22.1362 37.6445 22.3521 37.6709 22.5601 37.7267C22.7266 37.7702 22.881 37.8463 23.0128 37.9498C23.127 38.0468 23.2151 38.1671 23.27 38.3012C23.3307 38.4473 23.3604 38.6029 23.3575 38.7594C23.3597 38.9165 23.3274 39.0723 23.2623 39.2175C23.2005 39.355 23.1054 39.4776 22.9845 39.576C22.8525 39.6838 22.6974 39.7647 22.5292 39.8134C22.329 39.8725 22.1195 39.9006 21.9093 39.8965L21.2869 39.887ZM21.2869 39.5024H21.9093C22.0446 39.504 22.1792 39.4856 22.308 39.4478C22.4143 39.4148 22.5123 39.3623 22.5961 39.2935C22.6734 39.2278 22.7332 39.1466 22.771 39.0561C22.8131 38.9604 22.8341 38.8579 22.8327 38.7546C22.8387 38.655 22.8211 38.5554 22.7811 38.4628C22.7412 38.3701 22.6798 38.2866 22.6013 38.2181C22.4047 38.0765 22.1579 38.0079 21.9093 38.0258H21.2869V39.5024Z" fill="#AFB1B8"/>
<path d="M28.2007 41.2355H27.7943C27.7536 41.2369 27.7135 41.2252 27.6812 41.2022C27.652 41.1799 27.6291 41.1514 27.6143 41.1191L27.2645 40.2525H25.5077L25.145 41.1191C25.1317 41.1508 25.1095 41.1787 25.0807 41.1999C25.048 41.2242 25.007 41.2368 24.965 41.2355H24.5586L26.1019 37.6479H26.6369L28.2007 41.2355ZM25.6543 39.9035H27.105L26.4928 38.4433C26.4461 38.3335 26.4074 38.2209 26.3771 38.1062L26.3179 38.2937C26.2999 38.3507 26.2794 38.403 26.2614 38.4457L25.6543 39.9035Z" fill="#AFB1B8"/>
<path d="M30.4233 37.6646C30.4541 37.6802 30.4805 37.7022 30.5005 37.7288L32.7511 40.433C32.7511 40.3903 32.7511 40.3475 32.7511 40.3072C32.7511 40.2668 32.7511 40.2265 32.7511 40.1885V37.648H33.2115V41.2355H32.9543C32.9178 41.2365 32.8816 41.2292 32.8489 41.2141C32.8171 41.197 32.7892 41.1745 32.7666 41.1477L30.5185 38.4458C30.521 38.4869 30.521 38.5281 30.5185 38.5692C30.5185 38.6096 30.5185 38.6452 30.5185 38.6784V41.2355H30.0581V37.648H30.3308C30.3626 37.6472 30.3942 37.6529 30.4233 37.6646Z" fill="#AFB1B8"/>
<path d="M37.0028 39.8085V41.2332H36.4883V39.8085L35.0659 37.6478H35.5263C35.566 37.6457 35.6052 37.6566 35.6369 37.6787C35.6649 37.7017 35.6884 37.729 35.7064 37.7594L36.5964 39.1532C36.6324 39.2126 36.6632 39.2672 36.689 39.3194C36.7147 39.3716 36.7353 39.4215 36.7533 39.4714L36.8201 39.317C36.8451 39.2606 36.8743 39.2059 36.9076 39.1532L37.7847 37.7499C37.8031 37.7219 37.8256 37.6964 37.8516 37.674C37.8821 37.6494 37.9217 37.6366 37.9622 37.6383H38.4277L37.0028 39.8085Z" fill="#AFB1B8"/>
<path d="M16.0859 31.6274C16.3097 31.6535 16.5361 31.6749 16.765 31.6938C20.2356 30.2607 23.1716 27.9152 25.206 24.9503C27.2404 21.9855 28.283 18.5329 28.2033 15.0242L24.3785 11.4937C25.1562 15.2294 24.7925 19.0911 23.3279 22.6469C21.8634 26.2027 19.3559 29.3121 16.0859 31.6274Z" fill="#AFB1B8"/>
<path d="M14.7202 31.4632L14.8231 31.4822C18.3173 29.1751 20.9814 25.9535 22.4708 22.2339C23.9601 18.5143 24.2063 14.4678 23.1774 10.6177L17.7296 5.58911C19.9331 9.72249 20.82 14.3483 20.2873 18.9287C19.7546 23.5091 17.824 27.8557 14.7202 31.4632Z" fill="#AFB1B8"/>
<path d="M33.1959 19.1697C32.2704 23.025 30.0225 26.502 26.7861 29.0844C25.841 29.8428 24.8214 30.5184 23.7407 31.1025C26.3761 30.3875 28.7983 29.1235 30.8207 27.4077C32.8432 25.692 34.4117 23.5705 35.4054 21.2068L33.1959 19.1697Z" fill="#AFB1B8"/>
<path d="M32.3292 18.6021L29.1835 15.6985C29.1233 19.009 28.1037 22.2442 26.2306 25.0679C24.3575 27.8915 21.6993 30.2006 18.5322 31.7551H18.5477C19.2534 31.7549 19.9586 31.716 20.6594 31.6388C23.6192 30.5237 26.2339 28.7496 28.2702 26.4748C30.3064 24.2001 31.7009 21.4954 32.3292 18.6021Z" fill="#AFB1B8"/>
<path d="M15.1757 3.46876L11.4229 0C8.06808 1.19665 5.18278 3.30031 3.14464 6.03565C1.1065 8.771 0.0104686 12.0106 0 15.3304H0C0.0125737 18.9988 1.3502 22.5585 3.80116 25.4461C6.25213 28.3337 9.67642 30.3844 13.5321 31.2734C16.974 27.4027 18.9892 22.6197 19.2847 17.6194C19.5803 12.6192 18.1409 7.66223 15.1757 3.46876Z" fill="#AFB1B8"/>
<path d="M41.0002 18.0677C40.9867 13.7154 39.1076 9.54496 35.7735 6.46741C32.4394 3.38986 27.9213 1.65536 23.2062 1.64283C21.0274 1.64075 18.8671 2.01187 16.835 2.73735L39.8119 23.9463C40.5987 22.0715 41.0016 20.0782 41.0002 18.0677Z" fill="#AFB1B8"/>
</svg>
