<svg width="19" height="5" viewBox="0 0 19 5" fill="none" xmlns="http://www.w3.org/2000/svg">
<path d="M1.79102 2.48633L2.60889 0.801758H3.29248L2.10107 3.04785V4.35645H1.48096V3.04785L0.287109 0.801758H0.973145L1.79102 2.48633ZM5.30176 3.52881H3.9248L3.63672 4.35645H2.99463L4.3374 0.801758H4.8916L6.23682 4.35645H5.59229L5.30176 3.52881ZM4.09814 3.03076H5.12842L4.61328 1.55615L4.09814 3.03076ZM7.73584 3.39697C7.73584 3.23258 7.7806 3.08203 7.87012 2.94531C7.95964 2.80697 8.13623 2.64339 8.3999 2.45459C8.26156 2.28044 8.16471 2.13232 8.10938 2.01025C8.05566 1.88818 8.02881 1.77018 8.02881 1.65625C8.02881 1.37793 8.11344 1.1582 8.28271 0.99707C8.45199 0.83431 8.67985 0.75293 8.96631 0.75293C9.2251 0.75293 9.43669 0.829427 9.60107 0.982422C9.76709 1.13379 9.8501 1.32178 9.8501 1.54639C9.8501 1.6945 9.81266 1.83122 9.73779 1.95654C9.66292 2.08024 9.54004 2.20394 9.36914 2.32764L9.12744 2.50342L9.81348 3.31396C9.91276 3.11865 9.9624 2.90137 9.9624 2.66211H10.4775C10.4775 3.09993 10.375 3.45882 10.1699 3.73877L10.6924 4.35645H10.0039L9.80371 4.11963C9.5498 4.31006 9.24707 4.40527 8.89551 4.40527C8.54395 4.40527 8.26237 4.3125 8.05078 4.12695C7.84082 3.93978 7.73584 3.69645 7.73584 3.39697ZM8.9126 3.93164C9.11279 3.93164 9.29997 3.86491 9.47412 3.73145L8.69775 2.81592L8.62207 2.86963C8.42676 3.01774 8.3291 3.18701 8.3291 3.37744C8.3291 3.54183 8.382 3.67529 8.48779 3.77783C8.59359 3.88037 8.73519 3.93164 8.9126 3.93164ZM8.58545 1.6416C8.58545 1.77832 8.66927 1.95003 8.83691 2.15674L9.10791 1.97119L9.18359 1.91016C9.28451 1.82064 9.33496 1.70589 9.33496 1.56592C9.33496 1.47314 9.29997 1.39421 9.22998 1.3291C9.15999 1.26237 9.07129 1.229 8.96387 1.229C8.84831 1.229 8.75635 1.26807 8.68799 1.34619C8.61963 1.42432 8.58545 1.52279 8.58545 1.6416ZM15.043 3.19922C15.0072 3.57845 14.8672 3.87467 14.623 4.08789C14.3789 4.29948 14.0542 4.40527 13.6489 4.40527C13.3657 4.40527 13.1159 4.33854 12.8994 4.20508C12.6846 4.06999 12.5186 3.87874 12.4014 3.63135C12.2842 3.38395 12.2231 3.09668 12.2183 2.76953V2.4375C12.2183 2.10221 12.2777 1.8068 12.3965 1.55127C12.5153 1.29574 12.6854 1.0988 12.9067 0.960449C13.1297 0.822103 13.3869 0.75293 13.6782 0.75293C14.0705 0.75293 14.3862 0.859538 14.6255 1.07275C14.8647 1.28597 15.0039 1.58708 15.043 1.97607H14.4277C14.3984 1.72054 14.3236 1.53662 14.2031 1.42432C14.0843 1.31038 13.9093 1.25342 13.6782 1.25342C13.4097 1.25342 13.203 1.35189 13.0581 1.54883C12.9149 1.74414 12.8416 2.03141 12.8384 2.41064V2.72559C12.8384 3.1097 12.9067 3.40267 13.0435 3.60449C13.1818 3.80632 13.3836 3.90723 13.6489 3.90723C13.8914 3.90723 14.0737 3.8527 14.1958 3.74365C14.3179 3.6346 14.3952 3.45312 14.4277 3.19922H15.043ZM18.4341 2.67188C18.4341 3.02018 18.3739 3.32617 18.2534 3.58984C18.133 3.85189 17.9604 4.05371 17.7358 4.19531C17.5129 4.33529 17.2557 4.40527 16.9644 4.40527C16.6763 4.40527 16.4191 4.33529 16.1929 4.19531C15.9683 4.05371 15.7941 3.8527 15.6704 3.59229C15.5483 3.33187 15.4865 3.03158 15.4849 2.69141V2.49121C15.4849 2.14453 15.5459 1.83854 15.668 1.57324C15.7917 1.30794 15.965 1.10531 16.188 0.965332C16.4126 0.82373 16.6698 0.75293 16.9595 0.75293C17.2492 0.75293 17.5055 0.822917 17.7285 0.962891C17.9531 1.10124 18.1265 1.30143 18.2485 1.56348C18.3706 1.82389 18.4325 2.12744 18.4341 2.47412V2.67188ZM17.8164 2.48633C17.8164 2.09245 17.7415 1.79053 17.5918 1.58057C17.4437 1.37061 17.2329 1.26562 16.9595 1.26562C16.6925 1.26562 16.4834 1.37061 16.332 1.58057C16.1823 1.7889 16.1058 2.08431 16.1025 2.4668V2.67188C16.1025 3.0625 16.1782 3.36442 16.3296 3.57764C16.4826 3.79085 16.6942 3.89746 16.9644 3.89746C17.2378 3.89746 17.4478 3.79329 17.5942 3.58496C17.7424 3.37663 17.8164 3.07227 17.8164 2.67188V2.48633Z" fill="#AFB1B8"/>
</svg>
