<svg width="13" height="13" viewBox="0 0 13 13" fill="none" xmlns="http://www.w3.org/2000/svg">
<path d="M11.7547 5.56507L7.06692 0.898377C6.61314 0.4446 5.87567 0.4446 5.42066 0.898377L0.734146 5.56507C0.514846 5.7856 0.391113 6.08187 0.391113 6.39223C0.391113 6.70259 0.513616 7.00009 0.734146 7.21939L5.42066 11.8861C5.64817 12.1124 5.9469 12.2256 6.24441 12.2256C6.54191 12.2256 6.84051 12.1124 7.06692 11.8861L11.7547 7.21939C11.974 7.00009 12.0988 6.70259 12.0988 6.39223C12.0988 6.08187 11.9751 5.78437 11.7547 5.56507ZM6.24441 9.4128L3.21098 6.39223L6.24441 3.37166L9.27893 6.39223L6.24441 9.4128Z" fill="#212121"/>
</svg>
