<svg width="17" height="16" viewBox="0 0 17 16" fill="none" xmlns="http://www.w3.org/2000/svg">
<path d="M16.9434 5.8964C16.8058 5.47516 16.4418 5.16727 16.002 5.10301L11.823 4.49515L9.95277 0.708118C9.56079 -0.0899213 8.25292 -0.0899213 7.86094 0.708118L5.99074 4.49515L1.8116 5.10315C1.37177 5.16727 1.00782 5.47421 0.868908 5.89654C0.732461 6.31887 0.845528 6.78317 1.16409 7.09244L4.18931 10.0407L3.47535 14.2034C3.4007 14.6409 3.58035 15.0831 3.93856 15.3445C4.30142 15.6082 4.77502 15.6408 5.16823 15.4331L8.90631 13.4672L12.6444 15.4331C12.8147 15.5229 13.0026 15.5672 13.1881 15.5672C13.4296 15.5672 13.6712 15.4926 13.8742 15.3444C14.2335 15.0831 14.4131 14.6408 14.3374 14.2033L13.6235 10.0405L16.6487 7.0923C16.9656 6.78194 17.08 6.31873 16.9434 5.8964ZM11.5558 8.79912C11.2817 9.06627 11.1556 9.4536 11.221 9.83164L11.6387 12.2688L9.45005 11.1185C9.2797 11.0286 9.09307 10.9843 8.90631 10.9843C8.71969 10.9843 8.53416 11.0286 8.36257 11.1185L6.17381 12.2688L6.59149 9.83164C6.65684 9.4536 6.53079 9.0675 6.25666 8.79912L4.48449 7.07247L6.9322 6.71659C7.31256 6.66177 7.64041 6.42264 7.81077 6.07838L8.90508 3.86172L9.99939 6.07838C10.1697 6.4225 10.4976 6.66177 10.878 6.71659L13.3257 7.07247L11.5558 8.79912Z" fill="#2196F3"/>
</svg>
