<svg width="8" height="8" viewBox="0 0 8 8" fill="none" xmlns="http://www.w3.org/2000/svg">
<path d="M4.35267 0.333317H4.34217C2.40915 0.3304 0.839835 1.89505 0.836918 3.82807C0.834001 5.76109 2.39865 7.33041 4.33167 7.33332H4.34217C6.27519 7.33624 7.8445 5.7716 7.84741 3.83857C7.85033 1.90555 6.28569 0.336234 4.35267 0.333317ZM5.16933 4.66049C4.94971 4.87895 4.65206 5.00115 4.34217 4.99999C3.69788 4.99663 3.17827 4.47164 3.18163 3.82734C3.18323 3.51891 3.3069 3.22374 3.5255 3.00615C3.74265 2.79017 4.03592 2.66826 4.34217 2.66665C4.98646 2.67001 5.50606 3.19501 5.50271 3.8393C5.5011 4.14774 5.37744 4.4429 5.15883 4.66049H5.16933Z" fill="white"/>
</svg>
